<svg width="66" height="71" viewBox="0 0 66 71" fill="none" xmlns="http://www.w3.org/2000/svg">
<g filter="url(#filter0_d)">
<rect width="66" height="66" rx="20" fill="#FF7139"/>
</g>
<path d="M36.8908 29.128C36.8908 30.44 35.8668 32.072 33.8188 34.056L25.5948 41.896V45H41.3708V41.032H31.9948L36.3788 36.872C39.7068 33.672 41.1788 31.304 41.1788 29C41.1788 27.112 40.4108 25.48 38.8748 24.136C37.3708 22.792 35.4828 22.12 33.2748 22.12C29.6588 22.12 26.5868 24.2 25.1468 27.528L28.9868 29.352C29.7548 27.336 31.3548 26.088 33.2748 26.088C34.2668 26.088 35.0988 26.376 35.8028 26.984C36.5388 27.592 36.8908 28.296 36.8908 29.128Z" fill="white"/>
<defs>
<filter id="filter0_d" x="0" y="0" width="66" height="71" filterUnits="userSpaceOnUse" color-interpolation-filters="sRGB">
<feFlood flood-opacity="0" result="BackgroundImageFix"/>
<feColorMatrix in="SourceAlpha" type="matrix" values="0 0 0 0 0 0 0 0 0 0 0 0 0 0 0 0 0 0 127 0"/>
<feOffset dy="5"/>
<feColorMatrix type="matrix" values="0 0 0 0 1 0 0 0 0 0.443137 0 0 0 0 0.223529 0 0 0 0.65 0"/>
<feBlend mode="normal" in2="BackgroundImageFix" result="effect1_dropShadow"/>
<feBlend mode="normal" in="SourceGraphic" in2="effect1_dropShadow" result="shape"/>
</filter>
</defs>
</svg>
